<mxfile host="app.diagrams.net" modified="2023-08-01T23:24:35.469Z" agent="Mozilla/5.0 (Windows NT 10.0; Win64; x64; rv:109.0) Gecko/20100101 Firefox/115.0" etag="dF8I5e1xRAIo0e4zwUIe" version="21.6.6" type="device">
  <diagram name="Page-1" id="e56a1550-8fbb-45ad-956c-1786394a9013">
    <mxGraphModel dx="1690" dy="921" grid="1" gridSize="10" guides="1" tooltips="1" connect="1" arrows="1" fold="1" page="1" pageScale="1" pageWidth="1100" pageHeight="850" background="none" math="0" shadow="0">
      <root>
        <mxCell id="0" />
        <mxCell id="1" parent="0" />
        <mxCell id="2e49270ec7c68f3f-80" value="teachers" style="swimlane;html=1;fontStyle=0;childLayout=stackLayout;horizontal=1;startSize=26;fillColor=#e0e0e0;horizontalStack=0;resizeParent=1;resizeLast=0;collapsible=1;marginBottom=0;swimlaneFillColor=#ffffff;align=center;rounded=0;shadow=0;comic=0;labelBackgroundColor=none;strokeWidth=1;fontFamily=Verdana;fontSize=14" parent="1" vertex="1">
          <mxGeometry x="601" y="160" width="180" height="144" as="geometry" />
        </mxCell>
        <mxCell id="2e49270ec7c68f3f-81" value="id  (int)" style="shape=partialRectangle;top=0;left=0;right=0;bottom=1;html=1;align=left;verticalAlign=middle;fillColor=none;spacingLeft=34;spacingRight=4;whiteSpace=wrap;overflow=hidden;rotatable=0;points=[[0,0.5],[1,0.5]];portConstraint=eastwest;dropTarget=0;fontStyle=5;" parent="2e49270ec7c68f3f-80" vertex="1">
          <mxGeometry y="26" width="180" height="30" as="geometry" />
        </mxCell>
        <mxCell id="2e49270ec7c68f3f-82" value="PK" style="shape=partialRectangle;top=0;left=0;bottom=0;html=1;fillColor=none;align=left;verticalAlign=middle;spacingLeft=4;spacingRight=4;whiteSpace=wrap;overflow=hidden;rotatable=0;points=[];portConstraint=eastwest;part=1;" parent="2e49270ec7c68f3f-81" vertex="1" connectable="0">
          <mxGeometry width="30" height="30" as="geometry" />
        </mxCell>
        <mxCell id="2e49270ec7c68f3f-83" value="name (varchar)" style="shape=partialRectangle;top=0;left=0;right=0;bottom=0;html=1;align=left;verticalAlign=top;fillColor=none;spacingLeft=34;spacingRight=4;whiteSpace=wrap;overflow=hidden;rotatable=0;points=[[0,0.5],[1,0.5]];portConstraint=eastwest;dropTarget=0;" parent="2e49270ec7c68f3f-80" vertex="1">
          <mxGeometry y="56" width="180" height="26" as="geometry" />
        </mxCell>
        <mxCell id="2e49270ec7c68f3f-84" value="" style="shape=partialRectangle;top=0;left=0;bottom=0;html=1;fillColor=none;align=left;verticalAlign=top;spacingLeft=4;spacingRight=4;whiteSpace=wrap;overflow=hidden;rotatable=0;points=[];portConstraint=eastwest;part=1;" parent="2e49270ec7c68f3f-83" vertex="1" connectable="0">
          <mxGeometry width="30" height="26" as="geometry" />
        </mxCell>
        <mxCell id="g3apoFvh84sOGvdVIPCL-2" value="password (varchar)" style="shape=partialRectangle;top=0;left=0;right=0;bottom=0;html=1;align=left;verticalAlign=top;fillColor=none;spacingLeft=34;spacingRight=4;whiteSpace=wrap;overflow=hidden;rotatable=0;points=[[0,0.5],[1,0.5]];portConstraint=eastwest;dropTarget=0;" parent="2e49270ec7c68f3f-80" vertex="1">
          <mxGeometry y="82" width="180" height="26" as="geometry" />
        </mxCell>
        <mxCell id="g3apoFvh84sOGvdVIPCL-3" value="" style="shape=partialRectangle;top=0;left=0;bottom=0;html=1;fillColor=none;align=left;verticalAlign=top;spacingLeft=4;spacingRight=4;whiteSpace=wrap;overflow=hidden;rotatable=0;points=[];portConstraint=eastwest;part=1;" parent="g3apoFvh84sOGvdVIPCL-2" vertex="1" connectable="0">
          <mxGeometry width="30" height="26" as="geometry" />
        </mxCell>
        <mxCell id="g3apoFvh84sOGvdVIPCL-47" value="login (varchar)" style="shape=partialRectangle;top=0;left=0;right=0;bottom=0;html=1;align=left;verticalAlign=top;fillColor=none;spacingLeft=34;spacingRight=4;whiteSpace=wrap;overflow=hidden;rotatable=0;points=[[0,0.5],[1,0.5]];portConstraint=eastwest;dropTarget=0;" parent="2e49270ec7c68f3f-80" vertex="1">
          <mxGeometry y="108" width="180" height="26" as="geometry" />
        </mxCell>
        <mxCell id="g3apoFvh84sOGvdVIPCL-48" value="" style="shape=partialRectangle;top=0;left=0;bottom=0;html=1;fillColor=none;align=left;verticalAlign=top;spacingLeft=4;spacingRight=4;whiteSpace=wrap;overflow=hidden;rotatable=0;points=[];portConstraint=eastwest;part=1;" parent="g3apoFvh84sOGvdVIPCL-47" vertex="1" connectable="0">
          <mxGeometry width="30" height="26" as="geometry" />
        </mxCell>
        <mxCell id="2e49270ec7c68f3f-89" value="" style="shape=partialRectangle;top=0;left=0;right=0;bottom=0;html=1;align=left;verticalAlign=top;fillColor=none;spacingLeft=34;spacingRight=4;whiteSpace=wrap;overflow=hidden;rotatable=0;points=[[0,0.5],[1,0.5]];portConstraint=eastwest;dropTarget=0;" parent="2e49270ec7c68f3f-80" vertex="1">
          <mxGeometry y="134" width="180" height="10" as="geometry" />
        </mxCell>
        <mxCell id="2e49270ec7c68f3f-90" value="" style="shape=partialRectangle;top=0;left=0;bottom=0;html=1;fillColor=none;align=left;verticalAlign=top;spacingLeft=4;spacingRight=4;whiteSpace=wrap;overflow=hidden;rotatable=0;points=[];portConstraint=eastwest;part=1;" parent="2e49270ec7c68f3f-89" vertex="1" connectable="0">
          <mxGeometry width="30" height="10" as="geometry" />
        </mxCell>
        <mxCell id="g3apoFvh84sOGvdVIPCL-6" value="specialization_areas" style="swimlane;html=1;fontStyle=0;childLayout=stackLayout;horizontal=1;startSize=26;fillColor=#e0e0e0;horizontalStack=0;resizeParent=1;resizeLast=0;collapsible=1;marginBottom=0;swimlaneFillColor=#ffffff;align=center;rounded=0;shadow=0;comic=0;labelBackgroundColor=none;strokeWidth=1;fontFamily=Verdana;fontSize=14" parent="1" vertex="1">
          <mxGeometry x="40" y="98" width="180" height="92" as="geometry" />
        </mxCell>
        <mxCell id="g3apoFvh84sOGvdVIPCL-7" value="id (int)" style="shape=partialRectangle;top=0;left=0;right=0;bottom=1;html=1;align=left;verticalAlign=middle;fillColor=none;spacingLeft=34;spacingRight=4;whiteSpace=wrap;overflow=hidden;rotatable=0;points=[[0,0.5],[1,0.5]];portConstraint=eastwest;dropTarget=0;fontStyle=5;" parent="g3apoFvh84sOGvdVIPCL-6" vertex="1">
          <mxGeometry y="26" width="180" height="30" as="geometry" />
        </mxCell>
        <mxCell id="g3apoFvh84sOGvdVIPCL-8" value="PK" style="shape=partialRectangle;top=0;left=0;bottom=0;html=1;fillColor=none;align=left;verticalAlign=middle;spacingLeft=4;spacingRight=4;whiteSpace=wrap;overflow=hidden;rotatable=0;points=[];portConstraint=eastwest;part=1;" parent="g3apoFvh84sOGvdVIPCL-7" vertex="1" connectable="0">
          <mxGeometry width="30" height="30" as="geometry" />
        </mxCell>
        <mxCell id="g3apoFvh84sOGvdVIPCL-9" value="name (varchar)" style="shape=partialRectangle;top=0;left=0;right=0;bottom=0;html=1;align=left;verticalAlign=top;fillColor=none;spacingLeft=34;spacingRight=4;whiteSpace=wrap;overflow=hidden;rotatable=0;points=[[0,0.5],[1,0.5]];portConstraint=eastwest;dropTarget=0;" parent="g3apoFvh84sOGvdVIPCL-6" vertex="1">
          <mxGeometry y="56" width="180" height="26" as="geometry" />
        </mxCell>
        <mxCell id="g3apoFvh84sOGvdVIPCL-10" value="" style="shape=partialRectangle;top=0;left=0;bottom=0;html=1;fillColor=none;align=left;verticalAlign=top;spacingLeft=4;spacingRight=4;whiteSpace=wrap;overflow=hidden;rotatable=0;points=[];portConstraint=eastwest;part=1;" parent="g3apoFvh84sOGvdVIPCL-9" vertex="1" connectable="0">
          <mxGeometry width="30" height="26" as="geometry" />
        </mxCell>
        <mxCell id="g3apoFvh84sOGvdVIPCL-19" value="" style="shape=partialRectangle;top=0;left=0;right=0;bottom=0;html=1;align=left;verticalAlign=top;fillColor=none;spacingLeft=34;spacingRight=4;whiteSpace=wrap;overflow=hidden;rotatable=0;points=[[0,0.5],[1,0.5]];portConstraint=eastwest;dropTarget=0;" parent="g3apoFvh84sOGvdVIPCL-6" vertex="1">
          <mxGeometry y="82" width="180" height="10" as="geometry" />
        </mxCell>
        <mxCell id="g3apoFvh84sOGvdVIPCL-20" value="" style="shape=partialRectangle;top=0;left=0;bottom=0;html=1;fillColor=none;align=left;verticalAlign=top;spacingLeft=4;spacingRight=4;whiteSpace=wrap;overflow=hidden;rotatable=0;points=[];portConstraint=eastwest;part=1;" parent="g3apoFvh84sOGvdVIPCL-19" vertex="1" connectable="0">
          <mxGeometry width="30" height="10" as="geometry" />
        </mxCell>
        <mxCell id="g3apoFvh84sOGvdVIPCL-21" value="pedagogical_groups" style="swimlane;html=1;fontStyle=0;childLayout=stackLayout;horizontal=1;startSize=26;fillColor=#e0e0e0;horizontalStack=0;resizeParent=1;resizeLast=0;collapsible=1;marginBottom=0;swimlaneFillColor=#ffffff;align=center;rounded=0;shadow=0;comic=0;labelBackgroundColor=none;strokeWidth=1;fontFamily=Verdana;fontSize=14" parent="1" vertex="1">
          <mxGeometry x="40" y="280" width="180" height="92" as="geometry" />
        </mxCell>
        <mxCell id="JvQo9l5XibrBNOAun_qh-8" value="id (int)" style="shape=partialRectangle;top=0;left=0;right=0;bottom=1;html=1;align=left;verticalAlign=middle;fillColor=none;spacingLeft=34;spacingRight=4;whiteSpace=wrap;overflow=hidden;rotatable=0;points=[[0,0.5],[1,0.5]];portConstraint=eastwest;dropTarget=0;fontStyle=5;" vertex="1" parent="g3apoFvh84sOGvdVIPCL-21">
          <mxGeometry y="26" width="180" height="30" as="geometry" />
        </mxCell>
        <mxCell id="JvQo9l5XibrBNOAun_qh-9" value="PK" style="shape=partialRectangle;top=0;left=0;bottom=0;html=1;fillColor=none;align=left;verticalAlign=middle;spacingLeft=4;spacingRight=4;whiteSpace=wrap;overflow=hidden;rotatable=0;points=[];portConstraint=eastwest;part=1;" vertex="1" connectable="0" parent="JvQo9l5XibrBNOAun_qh-8">
          <mxGeometry width="30" height="30" as="geometry" />
        </mxCell>
        <mxCell id="g3apoFvh84sOGvdVIPCL-24" value="name (varchar)" style="shape=partialRectangle;top=0;left=0;right=0;bottom=0;html=1;align=left;verticalAlign=top;fillColor=none;spacingLeft=34;spacingRight=4;whiteSpace=wrap;overflow=hidden;rotatable=0;points=[[0,0.5],[1,0.5]];portConstraint=eastwest;dropTarget=0;" parent="g3apoFvh84sOGvdVIPCL-21" vertex="1">
          <mxGeometry y="56" width="180" height="26" as="geometry" />
        </mxCell>
        <mxCell id="g3apoFvh84sOGvdVIPCL-25" value="" style="shape=partialRectangle;top=0;left=0;bottom=0;html=1;fillColor=none;align=left;verticalAlign=top;spacingLeft=4;spacingRight=4;whiteSpace=wrap;overflow=hidden;rotatable=0;points=[];portConstraint=eastwest;part=1;" parent="g3apoFvh84sOGvdVIPCL-24" vertex="1" connectable="0">
          <mxGeometry width="30" height="26" as="geometry" />
        </mxCell>
        <mxCell id="g3apoFvh84sOGvdVIPCL-26" value="" style="shape=partialRectangle;top=0;left=0;right=0;bottom=0;html=1;align=left;verticalAlign=top;fillColor=none;spacingLeft=34;spacingRight=4;whiteSpace=wrap;overflow=hidden;rotatable=0;points=[[0,0.5],[1,0.5]];portConstraint=eastwest;dropTarget=0;" parent="g3apoFvh84sOGvdVIPCL-21" vertex="1">
          <mxGeometry y="82" width="180" height="10" as="geometry" />
        </mxCell>
        <mxCell id="g3apoFvh84sOGvdVIPCL-27" value="" style="shape=partialRectangle;top=0;left=0;bottom=0;html=1;fillColor=none;align=left;verticalAlign=top;spacingLeft=4;spacingRight=4;whiteSpace=wrap;overflow=hidden;rotatable=0;points=[];portConstraint=eastwest;part=1;" parent="g3apoFvh84sOGvdVIPCL-26" vertex="1" connectable="0">
          <mxGeometry width="30" height="10" as="geometry" />
        </mxCell>
        <mxCell id="g3apoFvh84sOGvdVIPCL-28" value="&lt;div&gt;specialization_area_teachers&lt;/div&gt;" style="swimlane;html=1;fontStyle=0;childLayout=stackLayout;horizontal=1;startSize=26;fillColor=#e0e0e0;horizontalStack=0;resizeParent=1;resizeLast=0;collapsible=1;marginBottom=0;swimlaneFillColor=#ffffff;align=center;rounded=0;shadow=0;comic=0;labelBackgroundColor=none;strokeWidth=1;fontFamily=Verdana;fontSize=14" parent="1" vertex="1">
          <mxGeometry x="310" y="100" width="210" height="88" as="geometry" />
        </mxCell>
        <mxCell id="g3apoFvh84sOGvdVIPCL-31" value="specialization_area_id" style="shape=partialRectangle;top=0;left=0;right=0;bottom=0;html=1;align=left;verticalAlign=top;fillColor=none;spacingLeft=34;spacingRight=4;whiteSpace=wrap;overflow=hidden;rotatable=0;points=[[0,0.5],[1,0.5]];portConstraint=eastwest;dropTarget=0;" parent="g3apoFvh84sOGvdVIPCL-28" vertex="1">
          <mxGeometry y="26" width="210" height="26" as="geometry" />
        </mxCell>
        <mxCell id="g3apoFvh84sOGvdVIPCL-32" value="FK" style="shape=partialRectangle;top=0;left=0;bottom=0;html=1;fillColor=none;align=left;verticalAlign=top;spacingLeft=4;spacingRight=4;whiteSpace=wrap;overflow=hidden;rotatable=0;points=[];portConstraint=eastwest;part=1;" parent="g3apoFvh84sOGvdVIPCL-31" vertex="1" connectable="0">
          <mxGeometry width="30" height="26" as="geometry" />
        </mxCell>
        <mxCell id="g3apoFvh84sOGvdVIPCL-33" value="" style="shape=partialRectangle;top=0;left=0;right=0;bottom=0;html=1;align=left;verticalAlign=top;fillColor=none;spacingLeft=34;spacingRight=4;whiteSpace=wrap;overflow=hidden;rotatable=0;points=[[0,0.5],[1,0.5]];portConstraint=eastwest;dropTarget=0;" parent="g3apoFvh84sOGvdVIPCL-28" vertex="1">
          <mxGeometry y="52" width="210" height="10" as="geometry" />
        </mxCell>
        <mxCell id="g3apoFvh84sOGvdVIPCL-34" value="" style="shape=partialRectangle;top=0;left=0;bottom=0;html=1;fillColor=none;align=left;verticalAlign=top;spacingLeft=4;spacingRight=4;whiteSpace=wrap;overflow=hidden;rotatable=0;points=[];portConstraint=eastwest;part=1;" parent="g3apoFvh84sOGvdVIPCL-33" vertex="1" connectable="0">
          <mxGeometry width="30" height="10" as="geometry" />
        </mxCell>
        <mxCell id="g3apoFvh84sOGvdVIPCL-35" value="teatcher_id" style="shape=partialRectangle;top=0;left=0;right=0;bottom=0;html=1;align=left;verticalAlign=top;fillColor=none;spacingLeft=34;spacingRight=4;whiteSpace=wrap;overflow=hidden;rotatable=0;points=[[0,0.5],[1,0.5]];portConstraint=eastwest;dropTarget=0;" parent="g3apoFvh84sOGvdVIPCL-28" vertex="1">
          <mxGeometry y="62" width="210" height="26" as="geometry" />
        </mxCell>
        <mxCell id="g3apoFvh84sOGvdVIPCL-36" value="FK" style="shape=partialRectangle;top=0;left=0;bottom=0;html=1;fillColor=none;align=left;verticalAlign=top;spacingLeft=4;spacingRight=4;whiteSpace=wrap;overflow=hidden;rotatable=0;points=[];portConstraint=eastwest;part=1;" parent="g3apoFvh84sOGvdVIPCL-35" vertex="1" connectable="0">
          <mxGeometry width="30" height="26" as="geometry" />
        </mxCell>
        <mxCell id="g3apoFvh84sOGvdVIPCL-37" value="pedagogical_group_teachers" style="swimlane;html=1;fontStyle=0;childLayout=stackLayout;horizontal=1;startSize=26;fillColor=#e0e0e0;horizontalStack=0;resizeParent=1;resizeLast=0;collapsible=1;marginBottom=0;swimlaneFillColor=#ffffff;align=center;rounded=0;shadow=0;comic=0;labelBackgroundColor=none;strokeWidth=1;fontFamily=Verdana;fontSize=14" parent="1" vertex="1">
          <mxGeometry x="300" y="282" width="210" height="88" as="geometry" />
        </mxCell>
        <mxCell id="g3apoFvh84sOGvdVIPCL-38" value="pedagogical_group_id" style="shape=partialRectangle;top=0;left=0;right=0;bottom=0;html=1;align=left;verticalAlign=top;fillColor=none;spacingLeft=34;spacingRight=4;whiteSpace=wrap;overflow=hidden;rotatable=0;points=[[0,0.5],[1,0.5]];portConstraint=eastwest;dropTarget=0;" parent="g3apoFvh84sOGvdVIPCL-37" vertex="1">
          <mxGeometry y="26" width="210" height="26" as="geometry" />
        </mxCell>
        <mxCell id="g3apoFvh84sOGvdVIPCL-39" value="FK" style="shape=partialRectangle;top=0;left=0;bottom=0;html=1;fillColor=none;align=left;verticalAlign=top;spacingLeft=4;spacingRight=4;whiteSpace=wrap;overflow=hidden;rotatable=0;points=[];portConstraint=eastwest;part=1;" parent="g3apoFvh84sOGvdVIPCL-38" vertex="1" connectable="0">
          <mxGeometry width="30" height="26" as="geometry" />
        </mxCell>
        <mxCell id="g3apoFvh84sOGvdVIPCL-40" value="" style="shape=partialRectangle;top=0;left=0;right=0;bottom=0;html=1;align=left;verticalAlign=top;fillColor=none;spacingLeft=34;spacingRight=4;whiteSpace=wrap;overflow=hidden;rotatable=0;points=[[0,0.5],[1,0.5]];portConstraint=eastwest;dropTarget=0;" parent="g3apoFvh84sOGvdVIPCL-37" vertex="1">
          <mxGeometry y="52" width="210" height="10" as="geometry" />
        </mxCell>
        <mxCell id="g3apoFvh84sOGvdVIPCL-41" value="" style="shape=partialRectangle;top=0;left=0;bottom=0;html=1;fillColor=none;align=left;verticalAlign=top;spacingLeft=4;spacingRight=4;whiteSpace=wrap;overflow=hidden;rotatable=0;points=[];portConstraint=eastwest;part=1;" parent="g3apoFvh84sOGvdVIPCL-40" vertex="1" connectable="0">
          <mxGeometry width="30" height="10" as="geometry" />
        </mxCell>
        <mxCell id="g3apoFvh84sOGvdVIPCL-42" value="teatcher_id" style="shape=partialRectangle;top=0;left=0;right=0;bottom=0;html=1;align=left;verticalAlign=top;fillColor=none;spacingLeft=34;spacingRight=4;whiteSpace=wrap;overflow=hidden;rotatable=0;points=[[0,0.5],[1,0.5]];portConstraint=eastwest;dropTarget=0;" parent="g3apoFvh84sOGvdVIPCL-37" vertex="1">
          <mxGeometry y="62" width="210" height="26" as="geometry" />
        </mxCell>
        <mxCell id="g3apoFvh84sOGvdVIPCL-43" value="FK" style="shape=partialRectangle;top=0;left=0;bottom=0;html=1;fillColor=none;align=left;verticalAlign=top;spacingLeft=4;spacingRight=4;whiteSpace=wrap;overflow=hidden;rotatable=0;points=[];portConstraint=eastwest;part=1;" parent="g3apoFvh84sOGvdVIPCL-42" vertex="1" connectable="0">
          <mxGeometry width="30" height="26" as="geometry" />
        </mxCell>
        <mxCell id="g3apoFvh84sOGvdVIPCL-46" value="" style="edgeStyle=entityRelationEdgeStyle;fontSize=12;html=1;endArrow=ERoneToMany;startArrow=ERone;rounded=0;entryX=1;entryY=0.5;entryDx=0;entryDy=0;startFill=0;exitX=0;exitY=0.5;exitDx=0;exitDy=0;" parent="1" source="2e49270ec7c68f3f-81" target="g3apoFvh84sOGvdVIPCL-35" edge="1">
          <mxGeometry width="100" height="100" relative="1" as="geometry">
            <mxPoint x="510" y="220" as="sourcePoint" />
            <mxPoint x="510" y="290" as="targetPoint" />
          </mxGeometry>
        </mxCell>
        <mxCell id="g3apoFvh84sOGvdVIPCL-49" value="" style="edgeStyle=entityRelationEdgeStyle;fontSize=12;html=1;endArrow=ERoneToMany;startArrow=ERone;rounded=0;entryX=1;entryY=0.5;entryDx=0;entryDy=0;startFill=0;exitX=-0.017;exitY=0.833;exitDx=0;exitDy=0;exitPerimeter=0;" parent="1" source="2e49270ec7c68f3f-81" target="g3apoFvh84sOGvdVIPCL-42" edge="1">
          <mxGeometry width="100" height="100" relative="1" as="geometry">
            <mxPoint x="530" y="220" as="sourcePoint" />
            <mxPoint x="510" y="232" as="targetPoint" />
          </mxGeometry>
        </mxCell>
        <mxCell id="g3apoFvh84sOGvdVIPCL-52" value="" style="edgeStyle=entityRelationEdgeStyle;fontSize=12;html=1;endArrow=ERoneToMany;startArrow=ERone;rounded=0;exitX=1;exitY=0.5;exitDx=0;exitDy=0;startFill=0;entryX=0;entryY=0.5;entryDx=0;entryDy=0;" parent="1" source="g3apoFvh84sOGvdVIPCL-7" target="g3apoFvh84sOGvdVIPCL-31" edge="1">
          <mxGeometry width="100" height="100" relative="1" as="geometry">
            <mxPoint x="200" y="240" as="sourcePoint" />
            <mxPoint x="300" y="140" as="targetPoint" />
          </mxGeometry>
        </mxCell>
        <mxCell id="g3apoFvh84sOGvdVIPCL-53" value="" style="edgeStyle=entityRelationEdgeStyle;fontSize=12;html=1;endArrow=ERoneToMany;startArrow=ERone;rounded=0;startFill=0;entryX=0;entryY=0.5;entryDx=0;entryDy=0;exitX=1;exitY=0.5;exitDx=0;exitDy=0;" parent="1" target="g3apoFvh84sOGvdVIPCL-38" edge="1">
          <mxGeometry width="100" height="100" relative="1" as="geometry">
            <mxPoint x="220" y="321" as="sourcePoint" />
            <mxPoint x="300" y="321" as="targetPoint" />
          </mxGeometry>
        </mxCell>
        <mxCell id="g3apoFvh84sOGvdVIPCL-54" value="teacher_availabilities" style="swimlane;html=1;fontStyle=0;childLayout=stackLayout;horizontal=1;startSize=26;fillColor=#e0e0e0;horizontalStack=0;resizeParent=1;resizeLast=0;collapsible=1;marginBottom=0;swimlaneFillColor=#ffffff;align=center;rounded=0;shadow=0;comic=0;labelBackgroundColor=none;strokeWidth=1;fontFamily=Verdana;fontSize=14" parent="1" vertex="1">
          <mxGeometry x="920" y="40" width="180" height="200" as="geometry" />
        </mxCell>
        <mxCell id="g3apoFvh84sOGvdVIPCL-55" value="id (int)" style="shape=partialRectangle;top=0;left=0;right=0;bottom=1;html=1;align=left;verticalAlign=middle;fillColor=none;spacingLeft=34;spacingRight=4;whiteSpace=wrap;overflow=hidden;rotatable=0;points=[[0,0.5],[1,0.5]];portConstraint=eastwest;dropTarget=0;fontStyle=5;" parent="g3apoFvh84sOGvdVIPCL-54" vertex="1">
          <mxGeometry y="26" width="180" height="30" as="geometry" />
        </mxCell>
        <mxCell id="g3apoFvh84sOGvdVIPCL-56" value="PK" style="shape=partialRectangle;top=0;left=0;bottom=0;html=1;fillColor=none;align=left;verticalAlign=middle;spacingLeft=4;spacingRight=4;whiteSpace=wrap;overflow=hidden;rotatable=0;points=[];portConstraint=eastwest;part=1;" parent="g3apoFvh84sOGvdVIPCL-55" vertex="1" connectable="0">
          <mxGeometry width="30" height="30" as="geometry" />
        </mxCell>
        <mxCell id="g3apoFvh84sOGvdVIPCL-57" value="availability_date (date)" style="shape=partialRectangle;top=0;left=0;right=0;bottom=0;html=1;align=left;verticalAlign=top;fillColor=none;spacingLeft=34;spacingRight=4;whiteSpace=wrap;overflow=hidden;rotatable=0;points=[[0,0.5],[1,0.5]];portConstraint=eastwest;dropTarget=0;" parent="g3apoFvh84sOGvdVIPCL-54" vertex="1">
          <mxGeometry y="56" width="180" height="26" as="geometry" />
        </mxCell>
        <mxCell id="g3apoFvh84sOGvdVIPCL-58" value="" style="shape=partialRectangle;top=0;left=0;bottom=0;html=1;fillColor=none;align=left;verticalAlign=top;spacingLeft=4;spacingRight=4;whiteSpace=wrap;overflow=hidden;rotatable=0;points=[];portConstraint=eastwest;part=1;" parent="g3apoFvh84sOGvdVIPCL-57" vertex="1" connectable="0">
          <mxGeometry width="30" height="26" as="geometry" />
        </mxCell>
        <mxCell id="g3apoFvh84sOGvdVIPCL-61" value="is_locked (bool)" style="shape=partialRectangle;top=0;left=0;right=0;bottom=0;html=1;align=left;verticalAlign=top;fillColor=none;spacingLeft=34;spacingRight=4;whiteSpace=wrap;overflow=hidden;rotatable=0;points=[[0,0.5],[1,0.5]];portConstraint=eastwest;dropTarget=0;" parent="g3apoFvh84sOGvdVIPCL-54" vertex="1">
          <mxGeometry y="82" width="180" height="26" as="geometry" />
        </mxCell>
        <mxCell id="g3apoFvh84sOGvdVIPCL-62" value="" style="shape=partialRectangle;top=0;left=0;bottom=0;html=1;fillColor=none;align=left;verticalAlign=top;spacingLeft=4;spacingRight=4;whiteSpace=wrap;overflow=hidden;rotatable=0;points=[];portConstraint=eastwest;part=1;" parent="g3apoFvh84sOGvdVIPCL-61" vertex="1" connectable="0">
          <mxGeometry width="30" height="26" as="geometry" />
        </mxCell>
        <mxCell id="g3apoFvh84sOGvdVIPCL-63" value="hour_block_id" style="shape=partialRectangle;top=0;left=0;right=0;bottom=0;html=1;align=left;verticalAlign=top;fillColor=none;spacingLeft=34;spacingRight=4;whiteSpace=wrap;overflow=hidden;rotatable=0;points=[[0,0.5],[1,0.5]];portConstraint=eastwest;dropTarget=0;" parent="g3apoFvh84sOGvdVIPCL-54" vertex="1">
          <mxGeometry y="108" width="180" height="26" as="geometry" />
        </mxCell>
        <mxCell id="g3apoFvh84sOGvdVIPCL-64" value="FK" style="shape=partialRectangle;top=0;left=0;bottom=0;html=1;fillColor=none;align=left;verticalAlign=top;spacingLeft=4;spacingRight=4;whiteSpace=wrap;overflow=hidden;rotatable=0;points=[];portConstraint=eastwest;part=1;" parent="g3apoFvh84sOGvdVIPCL-63" vertex="1" connectable="0">
          <mxGeometry width="30" height="26" as="geometry" />
        </mxCell>
        <mxCell id="Qy9XHoi7N5_Tqi6V0WGT-3" value="availability_type_id" style="shape=partialRectangle;top=0;left=0;right=0;bottom=0;html=1;align=left;verticalAlign=top;fillColor=none;spacingLeft=34;spacingRight=4;whiteSpace=wrap;overflow=hidden;rotatable=0;points=[[0,0.5],[1,0.5]];portConstraint=eastwest;dropTarget=0;" parent="g3apoFvh84sOGvdVIPCL-54" vertex="1">
          <mxGeometry y="134" width="180" height="26" as="geometry" />
        </mxCell>
        <mxCell id="Qy9XHoi7N5_Tqi6V0WGT-4" value="FK" style="shape=partialRectangle;top=0;left=0;bottom=0;html=1;fillColor=none;align=left;verticalAlign=top;spacingLeft=4;spacingRight=4;whiteSpace=wrap;overflow=hidden;rotatable=0;points=[];portConstraint=eastwest;part=1;" parent="Qy9XHoi7N5_Tqi6V0WGT-3" vertex="1" connectable="0">
          <mxGeometry width="30" height="26" as="geometry" />
        </mxCell>
        <mxCell id="Qy9XHoi7N5_Tqi6V0WGT-5" value="teacher_id" style="shape=partialRectangle;top=0;left=0;right=0;bottom=0;html=1;align=left;verticalAlign=top;fillColor=none;spacingLeft=34;spacingRight=4;whiteSpace=wrap;overflow=hidden;rotatable=0;points=[[0,0.5],[1,0.5]];portConstraint=eastwest;dropTarget=0;" parent="g3apoFvh84sOGvdVIPCL-54" vertex="1">
          <mxGeometry y="160" width="180" height="26" as="geometry" />
        </mxCell>
        <mxCell id="Qy9XHoi7N5_Tqi6V0WGT-6" value="FK" style="shape=partialRectangle;top=0;left=0;bottom=0;html=1;fillColor=none;align=left;verticalAlign=top;spacingLeft=4;spacingRight=4;whiteSpace=wrap;overflow=hidden;rotatable=0;points=[];portConstraint=eastwest;part=1;" parent="Qy9XHoi7N5_Tqi6V0WGT-5" vertex="1" connectable="0">
          <mxGeometry width="30" height="26" as="geometry" />
        </mxCell>
        <mxCell id="g3apoFvh84sOGvdVIPCL-65" value="" style="shape=partialRectangle;top=0;left=0;right=0;bottom=0;html=1;align=left;verticalAlign=top;fillColor=none;spacingLeft=34;spacingRight=4;whiteSpace=wrap;overflow=hidden;rotatable=0;points=[[0,0.5],[1,0.5]];portConstraint=eastwest;dropTarget=0;" parent="g3apoFvh84sOGvdVIPCL-54" vertex="1">
          <mxGeometry y="186" width="180" height="10" as="geometry" />
        </mxCell>
        <mxCell id="g3apoFvh84sOGvdVIPCL-66" value="" style="shape=partialRectangle;top=0;left=0;bottom=0;html=1;fillColor=none;align=left;verticalAlign=top;spacingLeft=4;spacingRight=4;whiteSpace=wrap;overflow=hidden;rotatable=0;points=[];portConstraint=eastwest;part=1;" parent="g3apoFvh84sOGvdVIPCL-65" vertex="1" connectable="0">
          <mxGeometry width="30" height="10" as="geometry" />
        </mxCell>
        <mxCell id="g3apoFvh84sOGvdVIPCL-67" value="schedule_atributions" style="swimlane;html=1;fontStyle=0;childLayout=stackLayout;horizontal=1;startSize=26;fillColor=#e0e0e0;horizontalStack=0;resizeParent=1;resizeLast=0;collapsible=1;marginBottom=0;swimlaneFillColor=#ffffff;align=center;rounded=0;shadow=0;comic=0;labelBackgroundColor=none;strokeWidth=1;fontFamily=Verdana;fontSize=14" parent="1" vertex="1">
          <mxGeometry x="880" y="282" width="220" height="222" as="geometry" />
        </mxCell>
        <mxCell id="g3apoFvh84sOGvdVIPCL-68" value="id (int)" style="shape=partialRectangle;top=0;left=0;right=0;bottom=1;html=1;align=left;verticalAlign=middle;fillColor=none;spacingLeft=34;spacingRight=4;whiteSpace=wrap;overflow=hidden;rotatable=0;points=[[0,0.5],[1,0.5]];portConstraint=eastwest;dropTarget=0;fontStyle=5;" parent="g3apoFvh84sOGvdVIPCL-67" vertex="1">
          <mxGeometry y="26" width="220" height="30" as="geometry" />
        </mxCell>
        <mxCell id="g3apoFvh84sOGvdVIPCL-69" value="PK" style="shape=partialRectangle;top=0;left=0;bottom=0;html=1;fillColor=none;align=left;verticalAlign=middle;spacingLeft=4;spacingRight=4;whiteSpace=wrap;overflow=hidden;rotatable=0;points=[];portConstraint=eastwest;part=1;" parent="g3apoFvh84sOGvdVIPCL-68" vertex="1" connectable="0">
          <mxGeometry width="30" height="30" as="geometry" />
        </mxCell>
        <mxCell id="g3apoFvh84sOGvdVIPCL-70" value="schedule_date_start(datetime)" style="shape=partialRectangle;top=0;left=0;right=0;bottom=0;html=1;align=left;verticalAlign=top;fillColor=none;spacingLeft=34;spacingRight=4;whiteSpace=wrap;overflow=hidden;rotatable=0;points=[[0,0.5],[1,0.5]];portConstraint=eastwest;dropTarget=0;" parent="g3apoFvh84sOGvdVIPCL-67" vertex="1">
          <mxGeometry y="56" width="220" height="26" as="geometry" />
        </mxCell>
        <mxCell id="g3apoFvh84sOGvdVIPCL-71" value="" style="shape=partialRectangle;top=0;left=0;bottom=0;html=1;fillColor=none;align=left;verticalAlign=top;spacingLeft=4;spacingRight=4;whiteSpace=wrap;overflow=hidden;rotatable=0;points=[];portConstraint=eastwest;part=1;" parent="g3apoFvh84sOGvdVIPCL-70" vertex="1" connectable="0">
          <mxGeometry width="30" height="26" as="geometry" />
        </mxCell>
        <mxCell id="JvQo9l5XibrBNOAun_qh-3" value="schedule_date_end (datetime)" style="shape=partialRectangle;top=0;left=0;right=0;bottom=0;html=1;align=left;verticalAlign=top;fillColor=none;spacingLeft=34;spacingRight=4;whiteSpace=wrap;overflow=hidden;rotatable=0;points=[[0,0.5],[1,0.5]];portConstraint=eastwest;dropTarget=0;" vertex="1" parent="g3apoFvh84sOGvdVIPCL-67">
          <mxGeometry y="82" width="220" height="26" as="geometry" />
        </mxCell>
        <mxCell id="JvQo9l5XibrBNOAun_qh-4" value="" style="shape=partialRectangle;top=0;left=0;bottom=0;html=1;fillColor=none;align=left;verticalAlign=top;spacingLeft=4;spacingRight=4;whiteSpace=wrap;overflow=hidden;rotatable=0;points=[];portConstraint=eastwest;part=1;" vertex="1" connectable="0" parent="JvQo9l5XibrBNOAun_qh-3">
          <mxGeometry width="30" height="26" as="geometry" />
        </mxCell>
        <mxCell id="Qy9XHoi7N5_Tqi6V0WGT-8" value="availability_type_id" style="shape=partialRectangle;top=0;left=0;right=0;bottom=0;html=1;align=left;verticalAlign=top;fillColor=none;spacingLeft=34;spacingRight=4;whiteSpace=wrap;overflow=hidden;rotatable=0;points=[[0,0.5],[1,0.5]];portConstraint=eastwest;dropTarget=0;" parent="g3apoFvh84sOGvdVIPCL-67" vertex="1">
          <mxGeometry y="108" width="220" height="26" as="geometry" />
        </mxCell>
        <mxCell id="Qy9XHoi7N5_Tqi6V0WGT-9" value="FK" style="shape=partialRectangle;top=0;left=0;bottom=0;html=1;fillColor=none;align=left;verticalAlign=top;spacingLeft=4;spacingRight=4;whiteSpace=wrap;overflow=hidden;rotatable=0;points=[];portConstraint=eastwest;part=1;" parent="Qy9XHoi7N5_Tqi6V0WGT-8" vertex="1" connectable="0">
          <mxGeometry width="30" height="26" as="geometry" />
        </mxCell>
        <mxCell id="g3apoFvh84sOGvdVIPCL-72" value="ufcd_id" style="shape=partialRectangle;top=0;left=0;right=0;bottom=0;html=1;align=left;verticalAlign=top;fillColor=none;spacingLeft=34;spacingRight=4;whiteSpace=wrap;overflow=hidden;rotatable=0;points=[[0,0.5],[1,0.5]];portConstraint=eastwest;dropTarget=0;" parent="g3apoFvh84sOGvdVIPCL-67" vertex="1">
          <mxGeometry y="134" width="220" height="26" as="geometry" />
        </mxCell>
        <mxCell id="g3apoFvh84sOGvdVIPCL-73" value="FK" style="shape=partialRectangle;top=0;left=0;bottom=0;html=1;fillColor=none;align=left;verticalAlign=top;spacingLeft=4;spacingRight=4;whiteSpace=wrap;overflow=hidden;rotatable=0;points=[];portConstraint=eastwest;part=1;" parent="g3apoFvh84sOGvdVIPCL-72" vertex="1" connectable="0">
          <mxGeometry width="30" height="26" as="geometry" />
        </mxCell>
        <mxCell id="Qy9XHoi7N5_Tqi6V0WGT-12" value="teacher_id" style="shape=partialRectangle;top=0;left=0;right=0;bottom=0;html=1;align=left;verticalAlign=top;fillColor=none;spacingLeft=34;spacingRight=4;whiteSpace=wrap;overflow=hidden;rotatable=0;points=[[0,0.5],[1,0.5]];portConstraint=eastwest;dropTarget=0;" parent="g3apoFvh84sOGvdVIPCL-67" vertex="1">
          <mxGeometry y="160" width="220" height="26" as="geometry" />
        </mxCell>
        <mxCell id="Qy9XHoi7N5_Tqi6V0WGT-13" value="FK" style="shape=partialRectangle;top=0;left=0;bottom=0;html=1;fillColor=none;align=left;verticalAlign=top;spacingLeft=4;spacingRight=4;whiteSpace=wrap;overflow=hidden;rotatable=0;points=[];portConstraint=eastwest;part=1;" parent="Qy9XHoi7N5_Tqi6V0WGT-12" vertex="1" connectable="0">
          <mxGeometry width="30" height="26" as="geometry" />
        </mxCell>
        <mxCell id="g3apoFvh84sOGvdVIPCL-74" value="class_id" style="shape=partialRectangle;top=0;left=0;right=0;bottom=0;html=1;align=left;verticalAlign=top;fillColor=none;spacingLeft=34;spacingRight=4;whiteSpace=wrap;overflow=hidden;rotatable=0;points=[[0,0.5],[1,0.5]];portConstraint=eastwest;dropTarget=0;" parent="g3apoFvh84sOGvdVIPCL-67" vertex="1">
          <mxGeometry y="186" width="220" height="26" as="geometry" />
        </mxCell>
        <mxCell id="g3apoFvh84sOGvdVIPCL-75" value="FK" style="shape=partialRectangle;top=0;left=0;bottom=0;html=1;fillColor=none;align=left;verticalAlign=top;spacingLeft=4;spacingRight=4;whiteSpace=wrap;overflow=hidden;rotatable=0;points=[];portConstraint=eastwest;part=1;" parent="g3apoFvh84sOGvdVIPCL-74" vertex="1" connectable="0">
          <mxGeometry width="30" height="26" as="geometry" />
        </mxCell>
        <mxCell id="g3apoFvh84sOGvdVIPCL-78" value="" style="shape=partialRectangle;top=0;left=0;right=0;bottom=0;html=1;align=left;verticalAlign=top;fillColor=none;spacingLeft=34;spacingRight=4;whiteSpace=wrap;overflow=hidden;rotatable=0;points=[[0,0.5],[1,0.5]];portConstraint=eastwest;dropTarget=0;" parent="g3apoFvh84sOGvdVIPCL-67" vertex="1">
          <mxGeometry y="212" width="220" height="10" as="geometry" />
        </mxCell>
        <mxCell id="g3apoFvh84sOGvdVIPCL-79" value="" style="shape=partialRectangle;top=0;left=0;bottom=0;html=1;fillColor=none;align=left;verticalAlign=top;spacingLeft=4;spacingRight=4;whiteSpace=wrap;overflow=hidden;rotatable=0;points=[];portConstraint=eastwest;part=1;" parent="g3apoFvh84sOGvdVIPCL-78" vertex="1" connectable="0">
          <mxGeometry width="30" height="10" as="geometry" />
        </mxCell>
        <mxCell id="g3apoFvh84sOGvdVIPCL-80" value="availability_types" style="swimlane;html=1;fontStyle=0;childLayout=stackLayout;horizontal=1;startSize=26;fillColor=#e0e0e0;horizontalStack=0;resizeParent=1;resizeLast=0;collapsible=1;marginBottom=0;swimlaneFillColor=#ffffff;align=center;rounded=0;shadow=0;comic=0;labelBackgroundColor=none;strokeWidth=1;fontFamily=Verdana;fontSize=14" parent="1" vertex="1">
          <mxGeometry x="1240" y="199" width="180" height="108" as="geometry" />
        </mxCell>
        <mxCell id="g3apoFvh84sOGvdVIPCL-81" value="id (int)" style="shape=partialRectangle;top=0;left=0;right=0;bottom=1;html=1;align=left;verticalAlign=middle;fillColor=none;spacingLeft=34;spacingRight=4;whiteSpace=wrap;overflow=hidden;rotatable=0;points=[[0,0.5],[1,0.5]];portConstraint=eastwest;dropTarget=0;fontStyle=5;" parent="g3apoFvh84sOGvdVIPCL-80" vertex="1">
          <mxGeometry y="26" width="180" height="30" as="geometry" />
        </mxCell>
        <mxCell id="g3apoFvh84sOGvdVIPCL-82" value="PK" style="shape=partialRectangle;top=0;left=0;bottom=0;html=1;fillColor=none;align=left;verticalAlign=middle;spacingLeft=4;spacingRight=4;whiteSpace=wrap;overflow=hidden;rotatable=0;points=[];portConstraint=eastwest;part=1;" parent="g3apoFvh84sOGvdVIPCL-81" vertex="1" connectable="0">
          <mxGeometry width="30" height="30" as="geometry" />
        </mxCell>
        <mxCell id="g3apoFvh84sOGvdVIPCL-83" value="name (varchar)" style="shape=partialRectangle;top=0;left=0;right=0;bottom=0;html=1;align=left;verticalAlign=top;fillColor=none;spacingLeft=34;spacingRight=4;whiteSpace=wrap;overflow=hidden;rotatable=0;points=[[0,0.5],[1,0.5]];portConstraint=eastwest;dropTarget=0;" parent="g3apoFvh84sOGvdVIPCL-80" vertex="1">
          <mxGeometry y="56" width="180" height="26" as="geometry" />
        </mxCell>
        <mxCell id="g3apoFvh84sOGvdVIPCL-84" value="" style="shape=partialRectangle;top=0;left=0;bottom=0;html=1;fillColor=none;align=left;verticalAlign=top;spacingLeft=4;spacingRight=4;whiteSpace=wrap;overflow=hidden;rotatable=0;points=[];portConstraint=eastwest;part=1;" parent="g3apoFvh84sOGvdVIPCL-83" vertex="1" connectable="0">
          <mxGeometry width="30" height="26" as="geometry" />
        </mxCell>
        <mxCell id="g3apoFvh84sOGvdVIPCL-85" value="" style="shape=partialRectangle;top=0;left=0;right=0;bottom=0;html=1;align=left;verticalAlign=top;fillColor=none;spacingLeft=34;spacingRight=4;whiteSpace=wrap;overflow=hidden;rotatable=0;points=[[0,0.5],[1,0.5]];portConstraint=eastwest;dropTarget=0;" parent="g3apoFvh84sOGvdVIPCL-80" vertex="1">
          <mxGeometry y="82" width="180" height="26" as="geometry" />
        </mxCell>
        <mxCell id="g3apoFvh84sOGvdVIPCL-86" value="" style="shape=partialRectangle;top=0;left=0;bottom=0;html=1;fillColor=none;align=left;verticalAlign=top;spacingLeft=4;spacingRight=4;whiteSpace=wrap;overflow=hidden;rotatable=0;points=[];portConstraint=eastwest;part=1;" parent="g3apoFvh84sOGvdVIPCL-85" vertex="1" connectable="0">
          <mxGeometry width="30" height="26" as="geometry" />
        </mxCell>
        <mxCell id="g3apoFvh84sOGvdVIPCL-93" value="hour_blocks" style="swimlane;html=1;fontStyle=0;childLayout=stackLayout;horizontal=1;startSize=26;fillColor=#e0e0e0;horizontalStack=0;resizeParent=1;resizeLast=0;collapsible=1;marginBottom=0;swimlaneFillColor=#ffffff;align=center;rounded=0;shadow=0;comic=0;labelBackgroundColor=none;strokeWidth=1;fontFamily=Verdana;fontSize=14" parent="1" vertex="1">
          <mxGeometry x="1240" y="40" width="180" height="92" as="geometry" />
        </mxCell>
        <mxCell id="g3apoFvh84sOGvdVIPCL-94" value="id (int)" style="shape=partialRectangle;top=0;left=0;right=0;bottom=1;html=1;align=left;verticalAlign=middle;fillColor=none;spacingLeft=34;spacingRight=4;whiteSpace=wrap;overflow=hidden;rotatable=0;points=[[0,0.5],[1,0.5]];portConstraint=eastwest;dropTarget=0;fontStyle=5;" parent="g3apoFvh84sOGvdVIPCL-93" vertex="1">
          <mxGeometry y="26" width="180" height="30" as="geometry" />
        </mxCell>
        <mxCell id="g3apoFvh84sOGvdVIPCL-95" value="PK" style="shape=partialRectangle;top=0;left=0;bottom=0;html=1;fillColor=none;align=left;verticalAlign=middle;spacingLeft=4;spacingRight=4;whiteSpace=wrap;overflow=hidden;rotatable=0;points=[];portConstraint=eastwest;part=1;" parent="g3apoFvh84sOGvdVIPCL-94" vertex="1" connectable="0">
          <mxGeometry width="30" height="30" as="geometry" />
        </mxCell>
        <mxCell id="g3apoFvh84sOGvdVIPCL-96" value="hour (time)" style="shape=partialRectangle;top=0;left=0;right=0;bottom=0;html=1;align=left;verticalAlign=top;fillColor=none;spacingLeft=34;spacingRight=4;whiteSpace=wrap;overflow=hidden;rotatable=0;points=[[0,0.5],[1,0.5]];portConstraint=eastwest;dropTarget=0;" parent="g3apoFvh84sOGvdVIPCL-93" vertex="1">
          <mxGeometry y="56" width="180" height="26" as="geometry" />
        </mxCell>
        <mxCell id="g3apoFvh84sOGvdVIPCL-97" value="" style="shape=partialRectangle;top=0;left=0;bottom=0;html=1;fillColor=none;align=left;verticalAlign=top;spacingLeft=4;spacingRight=4;whiteSpace=wrap;overflow=hidden;rotatable=0;points=[];portConstraint=eastwest;part=1;" parent="g3apoFvh84sOGvdVIPCL-96" vertex="1" connectable="0">
          <mxGeometry width="30" height="26" as="geometry" />
        </mxCell>
        <mxCell id="g3apoFvh84sOGvdVIPCL-104" value="" style="shape=partialRectangle;top=0;left=0;right=0;bottom=0;html=1;align=left;verticalAlign=top;fillColor=none;spacingLeft=34;spacingRight=4;whiteSpace=wrap;overflow=hidden;rotatable=0;points=[[0,0.5],[1,0.5]];portConstraint=eastwest;dropTarget=0;" parent="g3apoFvh84sOGvdVIPCL-93" vertex="1">
          <mxGeometry y="82" width="180" height="10" as="geometry" />
        </mxCell>
        <mxCell id="g3apoFvh84sOGvdVIPCL-105" value="" style="shape=partialRectangle;top=0;left=0;bottom=0;html=1;fillColor=none;align=left;verticalAlign=top;spacingLeft=4;spacingRight=4;whiteSpace=wrap;overflow=hidden;rotatable=0;points=[];portConstraint=eastwest;part=1;" parent="g3apoFvh84sOGvdVIPCL-104" vertex="1" connectable="0">
          <mxGeometry width="30" height="10" as="geometry" />
        </mxCell>
        <mxCell id="g3apoFvh84sOGvdVIPCL-106" value="classes" style="swimlane;html=1;fontStyle=0;childLayout=stackLayout;horizontal=1;startSize=26;fillColor=#e0e0e0;horizontalStack=0;resizeParent=1;resizeLast=0;collapsible=1;marginBottom=0;swimlaneFillColor=#ffffff;align=center;rounded=0;shadow=0;comic=0;labelBackgroundColor=none;strokeWidth=1;fontFamily=Verdana;fontSize=14" parent="1" vertex="1">
          <mxGeometry x="1240" y="520" width="180" height="120" as="geometry" />
        </mxCell>
        <mxCell id="g3apoFvh84sOGvdVIPCL-107" value="id" style="shape=partialRectangle;top=0;left=0;right=0;bottom=1;html=1;align=left;verticalAlign=middle;fillColor=none;spacingLeft=34;spacingRight=4;whiteSpace=wrap;overflow=hidden;rotatable=0;points=[[0,0.5],[1,0.5]];portConstraint=eastwest;dropTarget=0;fontStyle=5;" parent="g3apoFvh84sOGvdVIPCL-106" vertex="1">
          <mxGeometry y="26" width="180" height="30" as="geometry" />
        </mxCell>
        <mxCell id="g3apoFvh84sOGvdVIPCL-108" value="PK" style="shape=partialRectangle;top=0;left=0;bottom=0;html=1;fillColor=none;align=left;verticalAlign=middle;spacingLeft=4;spacingRight=4;whiteSpace=wrap;overflow=hidden;rotatable=0;points=[];portConstraint=eastwest;part=1;" parent="g3apoFvh84sOGvdVIPCL-107" vertex="1" connectable="0">
          <mxGeometry width="30" height="30" as="geometry" />
        </mxCell>
        <mxCell id="g3apoFvh84sOGvdVIPCL-109" value="name (varchar)" style="shape=partialRectangle;top=0;left=0;right=0;bottom=0;html=1;align=left;verticalAlign=top;fillColor=none;spacingLeft=34;spacingRight=4;whiteSpace=wrap;overflow=hidden;rotatable=0;points=[[0,0.5],[1,0.5]];portConstraint=eastwest;dropTarget=0;" parent="g3apoFvh84sOGvdVIPCL-106" vertex="1">
          <mxGeometry y="56" width="180" height="26" as="geometry" />
        </mxCell>
        <mxCell id="g3apoFvh84sOGvdVIPCL-110" value="" style="shape=partialRectangle;top=0;left=0;bottom=0;html=1;fillColor=none;align=left;verticalAlign=top;spacingLeft=4;spacingRight=4;whiteSpace=wrap;overflow=hidden;rotatable=0;points=[];portConstraint=eastwest;part=1;" parent="g3apoFvh84sOGvdVIPCL-109" vertex="1" connectable="0">
          <mxGeometry width="30" height="26" as="geometry" />
        </mxCell>
        <mxCell id="g3apoFvh84sOGvdVIPCL-117" value="" style="shape=partialRectangle;top=0;left=0;right=0;bottom=0;html=1;align=left;verticalAlign=top;fillColor=none;spacingLeft=34;spacingRight=4;whiteSpace=wrap;overflow=hidden;rotatable=0;points=[[0,0.5],[1,0.5]];portConstraint=eastwest;dropTarget=0;" parent="g3apoFvh84sOGvdVIPCL-106" vertex="1">
          <mxGeometry y="82" width="180" height="10" as="geometry" />
        </mxCell>
        <mxCell id="g3apoFvh84sOGvdVIPCL-118" value="" style="shape=partialRectangle;top=0;left=0;bottom=0;html=1;fillColor=none;align=left;verticalAlign=top;spacingLeft=4;spacingRight=4;whiteSpace=wrap;overflow=hidden;rotatable=0;points=[];portConstraint=eastwest;part=1;" parent="g3apoFvh84sOGvdVIPCL-117" vertex="1" connectable="0">
          <mxGeometry width="30" height="10" as="geometry" />
        </mxCell>
        <mxCell id="Qy9XHoi7N5_Tqi6V0WGT-1" value="number (int)" style="shape=partialRectangle;top=0;left=0;right=0;bottom=0;html=1;align=left;verticalAlign=top;fillColor=none;spacingLeft=34;spacingRight=4;whiteSpace=wrap;overflow=hidden;rotatable=0;points=[[0,0.5],[1,0.5]];portConstraint=eastwest;dropTarget=0;" parent="g3apoFvh84sOGvdVIPCL-106" vertex="1">
          <mxGeometry y="92" width="180" height="26" as="geometry" />
        </mxCell>
        <mxCell id="Qy9XHoi7N5_Tqi6V0WGT-2" value="" style="shape=partialRectangle;top=0;left=0;bottom=0;html=1;fillColor=none;align=left;verticalAlign=top;spacingLeft=4;spacingRight=4;whiteSpace=wrap;overflow=hidden;rotatable=0;points=[];portConstraint=eastwest;part=1;" parent="Qy9XHoi7N5_Tqi6V0WGT-1" vertex="1" connectable="0">
          <mxGeometry width="30" height="26" as="geometry" />
        </mxCell>
        <mxCell id="g3apoFvh84sOGvdVIPCL-119" value="ufcds" style="swimlane;html=1;fontStyle=0;childLayout=stackLayout;horizontal=1;startSize=26;fillColor=#e0e0e0;horizontalStack=0;resizeParent=1;resizeLast=0;collapsible=1;marginBottom=0;swimlaneFillColor=#ffffff;align=center;rounded=0;shadow=0;comic=0;labelBackgroundColor=none;strokeWidth=1;fontFamily=Verdana;fontSize=14" parent="1" vertex="1">
          <mxGeometry x="1240" y="360" width="180" height="120" as="geometry" />
        </mxCell>
        <mxCell id="g3apoFvh84sOGvdVIPCL-120" value="id (int)" style="shape=partialRectangle;top=0;left=0;right=0;bottom=1;html=1;align=left;verticalAlign=middle;fillColor=none;spacingLeft=34;spacingRight=4;whiteSpace=wrap;overflow=hidden;rotatable=0;points=[[0,0.5],[1,0.5]];portConstraint=eastwest;dropTarget=0;fontStyle=5;" parent="g3apoFvh84sOGvdVIPCL-119" vertex="1">
          <mxGeometry y="26" width="180" height="30" as="geometry" />
        </mxCell>
        <mxCell id="g3apoFvh84sOGvdVIPCL-121" value="PK" style="shape=partialRectangle;top=0;left=0;bottom=0;html=1;fillColor=none;align=left;verticalAlign=middle;spacingLeft=4;spacingRight=4;whiteSpace=wrap;overflow=hidden;rotatable=0;points=[];portConstraint=eastwest;part=1;" parent="g3apoFvh84sOGvdVIPCL-120" vertex="1" connectable="0">
          <mxGeometry width="30" height="30" as="geometry" />
        </mxCell>
        <mxCell id="g3apoFvh84sOGvdVIPCL-122" value="name (varchar)" style="shape=partialRectangle;top=0;left=0;right=0;bottom=0;html=1;align=left;verticalAlign=top;fillColor=none;spacingLeft=34;spacingRight=4;whiteSpace=wrap;overflow=hidden;rotatable=0;points=[[0,0.5],[1,0.5]];portConstraint=eastwest;dropTarget=0;" parent="g3apoFvh84sOGvdVIPCL-119" vertex="1">
          <mxGeometry y="56" width="180" height="26" as="geometry" />
        </mxCell>
        <mxCell id="g3apoFvh84sOGvdVIPCL-123" value="" style="shape=partialRectangle;top=0;left=0;bottom=0;html=1;fillColor=none;align=left;verticalAlign=top;spacingLeft=4;spacingRight=4;whiteSpace=wrap;overflow=hidden;rotatable=0;points=[];portConstraint=eastwest;part=1;" parent="g3apoFvh84sOGvdVIPCL-122" vertex="1" connectable="0">
          <mxGeometry width="30" height="26" as="geometry" />
        </mxCell>
        <mxCell id="g3apoFvh84sOGvdVIPCL-128" value="number (int)" style="shape=partialRectangle;top=0;left=0;right=0;bottom=0;html=1;align=left;verticalAlign=top;fillColor=none;spacingLeft=34;spacingRight=4;whiteSpace=wrap;overflow=hidden;rotatable=0;points=[[0,0.5],[1,0.5]];portConstraint=eastwest;dropTarget=0;" parent="g3apoFvh84sOGvdVIPCL-119" vertex="1">
          <mxGeometry y="82" width="180" height="26" as="geometry" />
        </mxCell>
        <mxCell id="g3apoFvh84sOGvdVIPCL-129" value="" style="shape=partialRectangle;top=0;left=0;bottom=0;html=1;fillColor=none;align=left;verticalAlign=top;spacingLeft=4;spacingRight=4;whiteSpace=wrap;overflow=hidden;rotatable=0;points=[];portConstraint=eastwest;part=1;" parent="g3apoFvh84sOGvdVIPCL-128" vertex="1" connectable="0">
          <mxGeometry width="30" height="26" as="geometry" />
        </mxCell>
        <mxCell id="g3apoFvh84sOGvdVIPCL-130" value="" style="shape=partialRectangle;top=0;left=0;right=0;bottom=0;html=1;align=left;verticalAlign=top;fillColor=none;spacingLeft=34;spacingRight=4;whiteSpace=wrap;overflow=hidden;rotatable=0;points=[[0,0.5],[1,0.5]];portConstraint=eastwest;dropTarget=0;" parent="g3apoFvh84sOGvdVIPCL-119" vertex="1">
          <mxGeometry y="108" width="180" height="10" as="geometry" />
        </mxCell>
        <mxCell id="g3apoFvh84sOGvdVIPCL-131" value="" style="shape=partialRectangle;top=0;left=0;bottom=0;html=1;fillColor=none;align=left;verticalAlign=top;spacingLeft=4;spacingRight=4;whiteSpace=wrap;overflow=hidden;rotatable=0;points=[];portConstraint=eastwest;part=1;" parent="g3apoFvh84sOGvdVIPCL-130" vertex="1" connectable="0">
          <mxGeometry width="30" height="10" as="geometry" />
        </mxCell>
        <mxCell id="Qy9XHoi7N5_Tqi6V0WGT-14" value="" style="edgeStyle=entityRelationEdgeStyle;fontSize=12;html=1;endArrow=ERzeroToMany;startArrow=ERone;rounded=0;entryX=0.002;entryY=0.695;entryDx=0;entryDy=0;startFill=0;exitX=1;exitY=0.5;exitDx=0;exitDy=0;endFill=0;entryPerimeter=0;" parent="1" source="2e49270ec7c68f3f-81" target="Qy9XHoi7N5_Tqi6V0WGT-5" edge="1">
          <mxGeometry width="100" height="100" relative="1" as="geometry">
            <mxPoint x="930" y="425" as="sourcePoint" />
            <mxPoint x="810" y="399" as="targetPoint" />
          </mxGeometry>
        </mxCell>
        <mxCell id="Qy9XHoi7N5_Tqi6V0WGT-15" value="" style="edgeStyle=entityRelationEdgeStyle;fontSize=12;html=1;endArrow=ERzeroToMany;startArrow=ERone;rounded=0;entryX=0;entryY=0.5;entryDx=0;entryDy=0;startFill=0;exitX=1.022;exitY=0.767;exitDx=0;exitDy=0;endFill=0;exitPerimeter=0;" parent="1" source="2e49270ec7c68f3f-81" target="Qy9XHoi7N5_Tqi6V0WGT-12" edge="1">
          <mxGeometry width="100" height="100" relative="1" as="geometry">
            <mxPoint x="810" y="450" as="sourcePoint" />
            <mxPoint x="1030" y="436" as="targetPoint" />
          </mxGeometry>
        </mxCell>
        <mxCell id="Qy9XHoi7N5_Tqi6V0WGT-17" value="" style="edgeStyle=entityRelationEdgeStyle;fontSize=12;html=1;endArrow=ERone;startArrow=ERone;rounded=0;entryX=0;entryY=0.5;entryDx=0;entryDy=0;startFill=0;exitX=1;exitY=0.5;exitDx=0;exitDy=0;endFill=0;" parent="1" source="g3apoFvh84sOGvdVIPCL-63" target="g3apoFvh84sOGvdVIPCL-94" edge="1">
          <mxGeometry width="100" height="100" relative="1" as="geometry">
            <mxPoint x="1105" y="199" as="sourcePoint" />
            <mxPoint x="1240" y="445" as="targetPoint" />
          </mxGeometry>
        </mxCell>
        <mxCell id="Qy9XHoi7N5_Tqi6V0WGT-19" value="" style="edgeStyle=entityRelationEdgeStyle;fontSize=12;html=1;endArrow=ERone;startArrow=ERone;rounded=0;entryX=0;entryY=0.5;entryDx=0;entryDy=0;startFill=0;exitX=1;exitY=0.5;exitDx=0;exitDy=0;endFill=0;" parent="1" source="Qy9XHoi7N5_Tqi6V0WGT-3" target="g3apoFvh84sOGvdVIPCL-81" edge="1">
          <mxGeometry width="100" height="100" relative="1" as="geometry">
            <mxPoint x="1110" y="171" as="sourcePoint" />
            <mxPoint x="1250" y="91" as="targetPoint" />
          </mxGeometry>
        </mxCell>
        <mxCell id="Qy9XHoi7N5_Tqi6V0WGT-20" value="" style="edgeStyle=entityRelationEdgeStyle;fontSize=12;html=1;endArrow=ERone;startArrow=ERone;rounded=0;entryX=-0.022;entryY=0.867;entryDx=0;entryDy=0;startFill=0;exitX=1;exitY=0.5;exitDx=0;exitDy=0;endFill=0;entryPerimeter=0;" parent="1" source="Qy9XHoi7N5_Tqi6V0WGT-8" target="g3apoFvh84sOGvdVIPCL-81" edge="1">
          <mxGeometry width="100" height="100" relative="1" as="geometry">
            <mxPoint x="1110" y="280" as="sourcePoint" />
            <mxPoint x="1250" y="333" as="targetPoint" />
          </mxGeometry>
        </mxCell>
        <mxCell id="Qy9XHoi7N5_Tqi6V0WGT-21" value="" style="edgeStyle=entityRelationEdgeStyle;fontSize=12;html=1;endArrow=ERone;startArrow=ERone;rounded=0;startFill=0;exitX=1;exitY=0.5;exitDx=0;exitDy=0;endFill=0;" parent="1" source="g3apoFvh84sOGvdVIPCL-72" edge="1">
          <mxGeometry width="100" height="100" relative="1" as="geometry">
            <mxPoint x="1060" y="587" as="sourcePoint" />
            <mxPoint x="1240" y="400" as="targetPoint" />
          </mxGeometry>
        </mxCell>
        <mxCell id="Qy9XHoi7N5_Tqi6V0WGT-22" value="" style="edgeStyle=entityRelationEdgeStyle;fontSize=12;html=1;endArrow=ERone;startArrow=ERone;rounded=0;startFill=0;exitX=1;exitY=0.5;exitDx=0;exitDy=0;endFill=0;entryX=0;entryY=0.5;entryDx=0;entryDy=0;" parent="1" source="g3apoFvh84sOGvdVIPCL-74" target="g3apoFvh84sOGvdVIPCL-107" edge="1">
          <mxGeometry width="100" height="100" relative="1" as="geometry">
            <mxPoint x="1110" y="439" as="sourcePoint" />
            <mxPoint x="1250" y="410" as="targetPoint" />
          </mxGeometry>
        </mxCell>
      </root>
    </mxGraphModel>
  </diagram>
</mxfile>
